<svg width="100" height="100" viewBox="0 0 100 100" fill="none" xmlns="http://www.w3.org/2000/svg">
<path d="M72.1873 34.8276L74.6559 38.2253L37.4875 65.1995L34.2741 66.4937L28.4681 65.1722L26.0819 61.8878L62.9414 34.9648L66.608 33.3417L72.1873 34.8276Z" fill="#FFA217"/>
<path d="M72.1873 34.8276L74.6559 38.2253L37.4875 65.1995M72.1873 34.8276L35.019 61.8018M72.1873 34.8276L66.608 33.3417M37.4875 65.1995L34.2742 66.4937L28.4681 65.1722L26.0819 61.8878M37.4875 65.1995L35.019 61.8018M26.0819 61.8878L29.6662 60.1514M26.0819 61.8878L62.9414 34.9648L66.608 33.3417M29.6662 60.1514L35.019 61.8018M29.6662 60.1514L66.608 33.3417" stroke="black"/>
<path d="M72.1873 34.8276L74.6559 38.2253L37.4875 65.1995L34.2741 66.4937L28.4681 65.1722L26.0819 61.8878L62.9414 34.9648L66.608 33.3417L72.1873 34.8276Z" fill="#FFA217"/>
<path d="M72.1873 34.8276L74.6559 38.2253L37.4875 65.1995M72.1873 34.8276L35.019 61.8018M72.1873 34.8276L66.608 33.3417M37.4875 65.1995L34.2742 66.4937L28.4681 65.1722L26.0819 61.8878M37.4875 65.1995L35.019 61.8018M26.0819 61.8878L29.6662 60.1514M26.0819 61.8878L62.9414 34.9648L66.608 33.3417M29.6662 60.1514L35.019 61.8018M29.6662 60.1514L66.608 33.3417" stroke="black"/>
<path d="M69.5738 31.6298L72.5387 34.6048L39.9945 67.0025L37.0202 68.7781L31.0796 68.3705L28.2135 65.4947L60.4605 33.1953L63.8316 31.0247L69.5738 31.6298Z" fill="#FFA217"/>
<path d="M69.5738 31.6298L72.5387 34.6048L39.9945 67.0025M69.5738 31.6298L37.0296 64.0276M69.5738 31.6298L63.8316 31.0247M39.9945 67.0025L37.0202 68.7781L31.0796 68.3705L28.2135 65.4947M39.9945 67.0025L37.0296 64.0276M28.2135 65.4947L31.4858 63.2249M28.2135 65.4947L60.4605 33.1953L63.8316 31.0247M31.4858 63.2249L37.0296 64.0276M31.4858 63.2249L63.8316 31.0247" stroke="black"/>
<path d="M69.5738 31.6298L72.5387 34.6048L39.9945 67.0025L37.0202 68.7781L31.0796 68.3705L28.2135 65.4947L60.4605 33.1953L63.8316 31.0247L69.5738 31.6298Z" fill="#FFA217"/>
<path d="M69.5738 31.6298L72.5387 34.6048L39.9945 67.0025M69.5738 31.6298L37.0296 64.0276M69.5738 31.6298L63.8316 31.0247M39.9945 67.0025L37.0202 68.7781L31.0796 68.3705L28.2135 65.4947M39.9945 67.0025L37.0296 64.0276M28.2135 65.4947L31.4858 63.2249M28.2135 65.4947L60.4605 33.1953L63.8316 31.0247M31.4858 63.2249L37.0296 64.0276M31.4858 63.2249L63.8316 31.0247" stroke="black"/>
<path d="M65.2979 28.0075L68.8205 30.2957L43.7888 68.7882L41.2527 71.1471L35.3584 71.9923L31.9532 69.7804L56.7149 31.4463L59.5562 28.618L65.2979 28.0075Z" fill="#FFA217"/>
<path d="M65.2979 28.0075L68.8205 30.2957L43.7888 68.7882M65.2979 28.0075L40.2662 66.5M65.2979 28.0075L59.5562 28.618M43.7888 68.7882L41.2527 71.1471L35.3584 71.9923L31.9532 69.7804M43.7888 68.7882L40.2662 66.5M31.9532 69.7804L34.6772 66.8758M31.9532 69.7804L56.7149 31.4463L59.5562 28.618M34.6772 66.8758L40.2662 66.5M34.6772 66.8758L59.5562 28.618" stroke="black"/>
<path d="M65.2979 28.0075L68.8205 30.2957L43.7888 68.7882L41.2527 71.1471L35.3584 71.9923L31.9532 69.7804L56.7149 31.4463L59.5562 28.618L65.2979 28.0075Z" fill="#FFA217"/>
<path d="M65.2979 28.0075L68.8205 30.2957L43.7888 68.7882M65.2979 28.0075L40.2662 66.5M65.2979 28.0075L59.5562 28.618M43.7888 68.7882L41.2527 71.1471L35.3584 71.9923L31.9532 69.7804M43.7888 68.7882L40.2662 66.5M31.9532 69.7804L34.6772 66.8758M31.9532 69.7804L56.7149 31.4463L59.5562 28.618M34.6772 66.8758L40.2662 66.5M34.6772 66.8758L59.5562 28.618" stroke="black"/>
<path d="M60.3843 25.3728L64.3067 26.8771L47.8501 69.7379L45.8615 72.5731L40.2728 74.6274L36.4812 73.1732L52.7067 30.5236L54.896 27.1657L60.3843 25.3728Z" fill="#FFA217"/>
<path d="M60.3843 25.3728L64.3067 26.8771L47.8501 69.7379M60.3843 25.3728L43.9277 68.2335M60.3843 25.3728L54.896 27.1657M47.8501 69.7379L45.8615 72.5731L40.2728 74.6274L36.4812 73.1732M47.8501 69.7379L43.9277 68.2335M36.4812 73.1732L38.5397 69.765M36.4812 73.1732L52.7067 30.5236L54.896 27.1657M38.5397 69.765L43.9277 68.2335M38.5397 69.765L54.896 27.1657" stroke="black"/>
<path d="M60.3843 25.3728L64.3067 26.8771L47.8501 69.7379L45.8615 72.5731L40.2728 74.6274L36.4812 73.1732L52.7067 30.5236L54.896 27.1657L60.3843 25.3728Z" fill="#FFA217"/>
<path d="M60.3843 25.3728L64.3067 26.8771L47.8501 69.7379M60.3843 25.3728L43.9277 68.2335M60.3843 25.3728L54.896 27.1657M47.8501 69.7379L45.8615 72.5731L40.2728 74.6274L36.4812 73.1732M47.8501 69.7379L43.9277 68.2335M36.4812 73.1732L38.5397 69.765M36.4812 73.1732L52.7067 30.5236L54.896 27.1657M38.5397 69.765L43.9277 68.2335M38.5397 69.765L54.896 27.1657" stroke="black"/>
<path d="M56.4496 24.1141L60.5577 24.9937L50.9355 69.8834L49.4098 72.992L44.2065 75.8859L40.2354 75.0356L49.662 30.3904L51.305 26.7342L56.4496 24.1141Z" fill="#FFA217"/>
<path d="M56.4496 24.1141L60.5577 24.9937L50.9355 69.8834M56.4496 24.1141L46.8274 69.0038M56.4496 24.1141L51.305 26.7342M50.9355 69.8834L49.4098 72.992L44.2065 75.8859L40.2354 75.0356M50.9355 69.8834L46.8274 69.0038M40.2354 75.0356L41.7415 71.3501M40.2354 75.0356L49.662 30.3904L51.305 26.7342M41.7415 71.3501L46.8274 69.0038M41.7415 71.3501L51.305 26.7342" stroke="black"/>
<path d="M56.4496 24.1141L60.5577 24.9937L50.9355 69.8834L49.4098 72.992L44.2065 75.8859L40.2354 75.0356L49.662 30.3904L51.305 26.7342L56.4496 24.1141Z" fill="#FFA217"/>
<path d="M56.4496 24.1141L60.5577 24.9937L50.9355 69.8834M56.4496 24.1141L46.8274 69.0038M56.4496 24.1141L51.305 26.7342M50.9355 69.8834L49.4098 72.992L44.2065 75.8859L40.2354 75.0356M50.9355 69.8834L46.8274 69.0038M40.2354 75.0356L41.7415 71.3501M40.2354 75.0356L49.662 30.3904L51.305 26.7342M41.7415 71.3501L46.8274 69.0038M41.7415 71.3501L51.305 26.7342" stroke="black"/>
<path d="M50.888 23.4067H55.0892V69.3149L54.249 72.6741L49.7677 76.593H45.7064L45.5664 30.9648L46.4067 27.0458L50.888 23.4067Z" fill="#FFA217"/>
<path d="M50.888 23.4067H55.0892V69.3149M50.888 23.4067V69.3149M50.888 23.4067L46.4067 27.0458M55.0892 69.3149L54.249 72.6741L49.7677 76.593H45.7064M55.0892 69.3149H50.888M45.7064 76.593L46.4067 72.6741M45.7064 76.593L45.5664 30.9648L46.4067 27.0458M46.4067 72.6741L50.888 69.3149M46.4067 72.6741V27.0458" stroke="black"/>
<path d="M50.888 23.4067H55.0892V69.3149L54.249 72.6741L49.7677 76.593H45.7064L45.5664 30.9648L46.4067 27.0458L50.888 23.4067Z" fill="#FFA217"/>
<path d="M50.888 23.4067H55.0892V69.3149M50.888 23.4067V69.3149M50.888 23.4067L46.4067 27.0458M55.0892 69.3149L54.249 72.6741L49.7677 76.593H45.7064M55.0892 69.3149H50.888M45.7064 76.593L46.4067 72.6741M45.7064 76.593L45.5664 30.9648L46.4067 27.0458M46.4067 72.6741L50.888 69.3149M46.4067 72.6741V27.0458" stroke="black"/>
<rect x="0.5" y="0.5" width="99" height="99" rx="49.5" stroke="#FFA217"/>
</svg>
