<svg width="96" height="107" viewBox="0 0 96 107" fill="none" xmlns="http://www.w3.org/2000/svg">
<path d="M92.6415 82.2812L49.6825 106.472V87.6251L76.4501 72.9621L92.6415 82.2812ZM95.5867 79.6298V29.0213L79.8602 38.0653V70.5858L95.5867 79.6298ZM2.94525 82.2812L45.9042 106.472V87.6251L19.1367 72.9621L2.94525 82.2812ZM0 79.6298V29.0213L15.7266 38.0653V70.5858L0 79.6298ZM1.84078 25.7451L45.9042 0.933594V19.1592L17.4707 34.7333L1.84078 25.7451ZM93.746 25.7451L49.6825 0.933594V19.1592L78.1161 34.7333L93.746 25.7451ZM45.9042 83.3485L19.5048 68.8789V40.2333L45.9042 55.417V83.3485ZM49.6825 83.3485L76.0819 68.8789V40.2333L49.6825 55.417V83.3485ZM21.2861 36.9237L47.8008 22.4168L74.3155 36.9237L47.8008 52.1668L21.2861 36.9237Z" fill="#595953"/>
</svg>
