<svg width="438" height="195" viewBox="0 0 438 195" fill="none" xmlns="http://www.w3.org/2000/svg">
<path d="M1 18L47.5 35M1 18L48 1L95 18M1 18V79L47.5 96M47.5 35L95 18M47.5 35V96M95 18V79L47.5 96M297 88L343.5 105M297 88L344 71L391 88M297 88V149M343.5 105L391 88M343.5 105V166M391 88V149L343.5 166M343.5 166L297 149M297 149L344 166M297 149L250 166M250 166L296.5 183M250 166V227L296.5 244M296.5 183L344 166M296.5 183V244M344 166V227L296.5 244M437 131L390 149.5L389.5 209M437 131L390 114M437 131V192L389.5 209M389.5 209L343 192M165 68L211.5 85M165 68L212 51M165 68V129M211.5 85L259 68M211.5 85V146M259 68L212 51M259 68V129L211.5 146M212 51L164.5 68M212 51L165 34L118 51M211.5 146L165 129M165 129L117.5 146M165 129L118 112M165 129V190L117.5 207V146M118 51L164.5 68M118 51V112M164.5 68V129L118 112M118 112L71 129M24 146L70.5 163M24 146L71 129M24 146V207L70.5 224M70.5 163L118 146M70.5 163V224M118 146L71 129M118 146V207L70.5 224M71 129L117.5 146M212 146V173L164.5 190" stroke="#FFA217"/>
</svg>
