<svg width="279" height="279" viewBox="0 0 279 279" fill="none" xmlns="http://www.w3.org/2000/svg">
<g clip-path="url(#clip0_410_296)">
<path d="M116.483 277.605C50.22 265.747 0 208.552 0 139.5C0 62.775 62.775 0 139.5 0C216.225 0 279 62.775 279 139.5C279 208.552 228.78 265.747 162.517 277.605L154.845 271.327H124.155L116.483 277.605Z" fill="#595953"/>
<path d="M193.905 178.56L200.183 139.5H163.215V112.298C163.215 101.138 167.4 92.7675 184.14 92.7675H202.275V57.195C192.51 55.8 181.35 54.405 171.585 54.405C139.5 54.405 117.18 73.935 117.18 108.81V139.5H82.3052V178.56H117.18V276.908C124.853 278.303 132.525 279 140.198 279C147.87 279 155.543 278.303 163.215 276.908V178.56H193.905Z" fill="black"/>
</g>
<defs>
<clipPath id="clip0_410_296">
<rect width="279" height="279" fill="white"/>
</clipPath>
</defs>
</svg>
