<svg width="238" height="238" viewBox="0 0 238 238" fill="none" xmlns="http://www.w3.org/2000/svg">
<path d="M68.4969 90.678C68.4969 95.0096 65.0697 98.3892 60.8809 98.3892C56.5493 98.3892 53.1697 94.962 53.1697 90.678C53.1697 86.4416 56.6921 83.062 60.9761 83.062C65.0697 83.0144 68.4969 86.5368 68.4969 90.678Z" fill="#595953"/>
<path d="M53.8837 109.766C53.8837 106.529 53.9789 105.672 54.8357 104.101C55.8353 102.054 58.2629 100.674 60.7857 100.674C63.2133 100.674 65.6409 102.054 66.6405 104.101C67.4973 105.672 67.5925 106.434 67.5925 109.766V139.992C67.5925 143.228 67.4973 144.085 66.6405 145.656C65.6409 147.703 63.2133 149.083 60.7857 149.083C58.2629 149.083 55.8829 147.703 54.8357 145.656C53.9789 144.085 53.8837 143.324 53.8837 139.992V109.766Z" fill="#595953"/>
<path d="M74.4945 108.385C74.4945 103.625 77.2077 100.436 81.3013 100.436C84.0145 100.436 85.4901 101.388 87.9177 104.91C91.7257 101.436 95.1053 100.15 99.9605 100.15C103.34 100.15 106.767 101.007 109.29 102.483C110.67 103.244 111.527 104.054 113.098 106.148C118.62 101.674 122.237 100.15 127.473 100.15C136.993 100.15 143.99 106.862 143.99 116.049V139.944C143.99 143.228 143.895 144.038 143.038 145.656C141.991 147.703 139.564 149.131 137.136 149.131C134.613 149.131 132.186 147.75 131.138 145.656C130.282 144.085 130.186 143.324 130.186 139.944V119.095C130.186 114.906 127.378 112.003 123.189 112.003C119 112.003 116.002 114.906 116.002 119.095V139.944C116.002 143.228 115.906 144.038 115.05 145.656C114.002 147.703 111.575 149.131 109.147 149.131C106.624 149.131 104.197 147.75 103.15 145.656C102.293 144.085 102.198 143.324 102.198 139.944V120.428C102.198 115.097 99.5797 112.003 95.1053 112.003C91.0117 112.003 88.0129 115.002 88.0129 119.095V139.944C88.0129 143.228 87.9177 144.038 87.0609 145.656C86.0137 147.703 83.5861 149.131 81.1585 149.131C78.6357 149.131 76.2081 147.75 75.1609 145.656C74.3041 144.085 74.2089 143.324 74.2089 139.944V108.385H74.4945Z" fill="#595953"/>
<path d="M188.401 107.719C192.638 112.193 194.923 118.429 194.923 125.283C194.923 139.611 184.546 150.368 170.742 150.368C164.03 150.368 157.414 147.512 152.987 142.752C148.655 138.183 146.466 132.138 146.466 124.902C146.466 110.956 157.033 100.103 170.742 100.103C177.358 100.103 183.974 102.959 188.401 107.719ZM160.746 125.093C160.746 132.138 164.887 137.326 170.408 137.326C176.12 137.326 180.595 131.995 180.595 125.188C180.595 118.524 176.168 113.145 170.408 113.145C165.03 113.193 160.746 118.429 160.746 125.093Z" fill="#595953"/>
<path d="M121.285 231.431C97.7707 231.431 75.9699 224.196 57.9295 211.868C49.4091 216.342 30.2739 217.342 21.9439 216.342C9.80592 214.914 -2.90328 204.87 9.32992 195.065C28.3223 179.928 23.2291 173.93 23.2291 173.93C14.1375 157.699 8.94912 138.944 8.94912 119C8.94912 56.9296 59.2623 6.56885 121.333 6.56885C183.403 6.56885 233.716 56.882 233.716 119C233.716 181.118 183.355 231.431 121.285 231.431ZM121.285 23.0384C67.9255 23.0384 24.6571 66.3069 24.6571 119.714C24.6571 138.088 29.7979 155.271 38.6991 169.884C38.6991 169.884 45.0299 186.306 28.7983 198.54C38.9847 201.967 60.4523 195.684 61.5471 195.684C77.9691 208.631 98.7227 216.39 121.285 216.39C174.645 216.39 217.913 173.121 217.913 119.714C217.913 66.3069 174.645 23.0384 121.285 23.0384Z" fill="#595953"/>
</svg>
