<svg width="280" height="279" viewBox="0 0 280 279" fill="none" xmlns="http://www.w3.org/2000/svg">
<path d="M139.572 2.11353C82.2035 2.11353 65.4254 2.17271 62.1641 2.44325C50.3911 3.42187 43.0653 5.27553 35.0842 9.24916C28.9335 12.3034 24.0827 15.8437 19.2953 20.8065C10.5766 29.8571 5.29248 40.9918 3.37964 54.2273C2.44964 60.6528 2.17909 61.9633 2.12414 94.7838C2.103 105.724 2.12414 120.122 2.12414 139.434C2.12414 196.756 2.18755 213.517 2.46232 216.772C3.41346 228.228 5.21005 235.436 9.0146 243.32C16.2855 258.411 30.1721 269.74 46.5316 273.967C52.1962 275.426 58.4526 276.229 66.4844 276.609C69.8873 276.757 104.572 276.863 139.278 276.863C173.984 276.863 208.69 276.821 212.008 276.652C221.308 276.214 226.709 275.489 232.68 273.946C249.145 269.698 262.778 258.538 270.197 243.235C273.927 235.541 275.819 228.059 276.675 217.201C276.861 214.834 276.939 177.091 276.939 139.398C276.939 101.7 276.855 64.0262 276.669 61.6589C275.802 50.6257 273.91 43.2068 270.059 35.3653C266.899 28.9461 263.391 24.1524 258.297 19.2509C249.206 10.5681 238.088 5.28398 224.84 3.37325C218.421 2.44537 217.142 2.17059 184.296 2.11353H139.572Z" fill="#595953"/>
<path d="M139.572 2.11353C82.2035 2.11353 65.4254 2.17271 62.1641 2.44325C50.3911 3.42187 43.0653 5.27553 35.0842 9.24916C28.9335 12.3034 24.0827 15.8437 19.2953 20.8065C10.5766 29.8571 5.29248 40.9918 3.37964 54.2273C2.44964 60.6528 2.17909 61.9633 2.12414 94.7838C2.103 105.724 2.12414 120.122 2.12414 139.434C2.12414 196.756 2.18755 213.517 2.46232 216.772C3.41346 228.228 5.21005 235.436 9.01459 243.32C16.2855 258.411 30.1721 269.74 46.5316 273.967C52.1962 275.426 58.4526 276.229 66.4844 276.609C69.8873 276.757 104.572 276.863 139.278 276.863C173.984 276.863 208.69 276.821 212.008 276.652C221.308 276.214 226.709 275.489 232.68 273.946C249.145 269.698 262.778 258.538 270.197 243.235C273.927 235.541 275.819 228.059 276.675 217.201C276.861 214.834 276.939 177.091 276.939 139.398C276.939 101.7 276.855 64.0262 276.669 61.6589C275.802 50.6257 273.91 43.2068 270.059 35.3653C266.899 28.9461 263.391 24.1524 258.297 19.2509C249.206 10.5681 238.088 5.28398 224.84 3.37325C218.421 2.44537 217.142 2.17059 184.296 2.11353H139.572Z" fill="#595953"/>
<path d="M139.508 38.0454C111.955 38.0454 108.497 38.1659 97.6753 38.6584C86.8746 39.153 79.5023 40.8629 73.0515 43.3718C66.3787 45.9631 60.7184 49.4295 55.0792 55.0708C49.4358 60.7099 45.9694 66.3702 43.3697 73.0409C40.8544 79.4938 39.1424 86.8683 38.6563 97.6647C38.1722 108.487 38.0454 111.947 38.0454 139.5C38.0454 167.053 38.168 170.501 38.6584 181.322C39.1551 192.123 40.865 199.496 43.3718 205.946C45.9652 212.619 49.4316 218.279 55.0729 223.919C60.7099 229.562 66.3703 233.037 73.0388 235.628C79.4938 238.137 86.8683 239.847 97.6669 240.342C108.489 240.834 111.944 240.954 139.496 240.954C167.051 240.954 170.499 240.834 181.32 240.342C192.121 239.847 199.502 238.137 205.957 235.628C212.628 233.037 218.279 229.562 223.916 223.919C229.56 218.279 233.026 212.619 235.626 205.948C238.12 199.496 239.832 192.121 240.339 181.325C240.826 170.503 240.952 167.053 240.952 139.5C240.952 111.947 240.826 108.489 240.339 97.6669C239.832 86.8662 238.12 79.4938 235.626 73.043C233.026 66.3702 229.56 60.7099 223.916 55.0708C218.273 49.4273 212.63 45.961 205.951 43.3718C199.483 40.8629 192.106 39.153 181.306 38.6584C170.484 38.1659 167.039 38.0454 139.477 38.0454H139.508ZM130.407 56.3284C133.108 56.3241 136.122 56.3284 139.508 56.3284C166.597 56.3284 169.807 56.4256 180.505 56.9117C190.396 57.364 195.765 59.0169 199.341 60.4056C204.076 62.2444 207.451 64.4426 211 67.9935C214.551 71.5444 216.749 74.9262 218.592 79.6608C219.981 83.2328 221.636 88.6015 222.086 98.4933C222.572 109.188 222.678 112.401 222.678 139.477C222.678 166.552 222.572 169.765 222.086 180.46C221.634 190.352 219.981 195.721 218.592 199.293C216.753 204.027 214.551 207.398 211 210.947C207.449 214.498 204.078 216.696 199.341 218.535C195.769 219.93 190.396 221.579 180.505 222.031C169.81 222.517 166.597 222.623 139.508 222.623C112.418 222.623 109.207 222.517 98.5123 222.031C88.6205 221.575 83.2519 219.922 79.6735 218.533C74.9389 216.694 71.5571 214.496 68.0062 210.945C64.4553 207.394 62.2571 204.021 60.414 199.284C59.0254 195.712 57.3704 190.343 56.9202 180.452C56.434 169.757 56.3368 166.544 56.3368 139.451C56.3368 112.359 56.434 109.163 56.9202 98.4679C57.3725 88.5761 59.0254 83.2075 60.414 79.6312C62.2529 74.8967 64.4553 71.5148 68.0062 67.9639C71.5571 64.413 74.9389 62.2148 79.6735 60.3717C83.2498 58.9767 88.6205 57.3281 98.5123 56.8737C107.872 56.451 111.499 56.3241 130.407 56.303V56.3284ZM193.664 73.174C186.943 73.174 181.489 78.6209 181.489 85.3444C181.489 92.0657 186.943 97.5189 193.664 97.5189C200.385 97.5189 205.839 92.0657 205.839 85.3444C205.839 78.623 200.385 73.1698 193.664 73.1698V73.174ZM139.508 87.3988C110.735 87.3988 87.4073 110.727 87.4073 139.5C87.4073 168.273 110.735 191.591 139.508 191.591C168.281 191.591 191.601 168.273 191.601 139.5C191.601 110.727 168.281 87.3988 139.508 87.3988ZM139.508 105.682C158.185 105.682 173.327 120.822 173.327 139.5C173.327 158.176 158.185 173.318 139.508 173.318C120.83 173.318 105.69 158.176 105.69 139.5C105.69 120.822 120.83 105.682 139.508 105.682Z" fill="black"/>
</svg>
