<svg width="280" height="250" viewBox="0 0 280 250" fill="none" xmlns="http://www.w3.org/2000/svg">
<path d="M73.2128 0.433119C70.2928 0.431925 67.3666 0.545077 65.4441 0.772349C56.7705 1.79768 48.9299 4.00866 41.5796 7.54763L93.8681 59.7203L128.438 25.2039L128.437 25.1911L128.32 25.3053L125.064 22.1263C121.415 18.5613 118.713 16.2544 115.471 13.937C105.234 6.6204 94.0456 2.35569 80.9464 0.778164C79.0471 0.549412 76.1327 0.434235 73.2128 0.433119Z" fill="#3D3D3D"/>
<path d="M41.5794 7.54761L39.8446 8.41724C32.9046 11.8953 25.0792 17.7891 19.8843 23.4506C15.0696 28.6979 12.0464 32.9092 8.72193 39.0004L7.146 41.9451L59.4297 94.083L93.868 59.7203C93.868 59.7203 41.5911 7.55926 41.5794 7.54761Z" fill="#2D2D2D"/>
<path d="M7.1461 41.9451L6.01992 44.5785C3.32909 50.8748 1.543 57.4995 0.622731 64.5942C0.189911 67.931 0.12827 77.9558 0.521086 81.1151C2.33354 95.6918 7.42754 107.823 16.4288 118.939L22.6963 125.827C23.4468 126.588 24.1256 127.277 25.1251 128.286L59.4124 94.1003C59.5561 93.9569 7.1461 41.9451 7.1461 41.9451Z" fill="#1F1F1F"/>
<path d="M249.287 41.4802C249.238 41.4802 228.062 62.5622 201.628 88.9037L93.8188 196.808C110.673 213.608 124.595 227.394 124.847 227.523C125.11 227.657 125.669 227.88 126.09 228.018C126.526 228.162 127.399 228.242 128.117 228.204C130.675 228.069 126.556 232.016 184.304 174.361C213.262 145.449 237.721 120.891 238.658 119.788C242.987 114.687 246.566 109.19 249.237 103.54C258.17 84.6428 258.59 63.1247 250.404 43.8199C249.859 42.533 249.356 41.4802 249.287 41.4802Z" fill="#595953"/>
<path d="M214.508 6.8042L59.1343 162.321C59.1349 162.321 59.1947 162.38 59.195 162.38C110.919 110.429 214.704 6.93942 214.704 6.93942C214.663 6.90158 214.59 6.85423 214.508 6.8042ZM215.092 7.11195C215.092 7.11195 59.3868 162.476 59.3878 162.475C70.7756 173.839 82.431 185.444 93.8189 196.808L249.287 41.4803L248.453 39.6804C241.846 26.5364 230.731 15.2784 217.581 8.41059L215.092 7.11195Z" fill="#414141"/>
<path d="M42.2078 145.333L25.125 128.286C59.4124 94.1003 123.014 29.9261 137.67 16.4153C145.038 10.5572 152.55 6.46731 161.021 3.70259C165.998 2.07815 170.19 1.16258 175.759 0.483209C179.201 0.0634026 187.756 0.0100136 191.071 0.387664C196.683 1.02699 202.044 2.19378 206.958 3.84577C209.522 4.70793 214.42 6.67969 215.092 7.1119C159.685 63.2291 128.002 93.811 59.2905 162.38L42.2078 145.333Z" fill="#333333"/>
</svg>
