<svg width="280" height="250" viewBox="0 0 280 250" fill="none" xmlns="http://www.w3.org/2000/svg">
<g clip-path="url(#clip0_413_412)">
<path d="M80.0768 0.474868C76.8831 0.47356 73.6826 0.59763 71.5798 0.846831C62.0931 1.9711 53.5174 4.39541 45.478 8.27586L102.669 65.4827L140.48 27.6358L140.478 27.6218L140.351 27.747L136.79 24.2613C132.798 20.3522 129.843 17.8227 126.297 15.2818C115.1 7.25916 102.863 2.58295 88.5355 0.853208C86.4581 0.602383 83.2705 0.476092 80.0768 0.474868Z" fill="#3D3D3D"/>
<path d="M45.478 8.27588L43.5805 9.22943C35.9899 13.0431 27.4308 19.5056 21.7489 25.7134C16.4828 31.467 13.1762 36.0846 9.54008 42.7636L7.81641 45.9924L65.0017 103.161L102.669 65.4828C102.669 65.4828 45.4907 8.28866 45.478 8.27588Z" fill="#2D2D2D"/>
<path d="M7.81639 45.9924L6.58464 48.8799C3.64155 55.7838 1.68801 63.0477 0.681463 70.827C0.208066 74.4857 0.140646 85.4779 0.570289 88.942C2.55266 104.925 8.12422 118.227 17.9694 130.415L24.8245 137.968C25.6453 138.803 26.3878 139.559 27.4809 140.664L64.9827 103.18C65.1399 103.023 7.81639 45.9924 7.81639 45.9924Z" fill="#1F1F1F"/>
<path d="M272.658 45.4827C272.604 45.4827 249.443 68.5989 220.531 97.4821L102.615 215.798C121.049 234.219 136.276 249.336 136.551 249.477C136.839 249.624 137.45 249.868 137.911 250.02C138.387 250.177 139.343 250.265 140.128 250.223C142.925 250.075 138.42 254.404 201.582 191.185C233.255 159.483 260.008 132.555 261.032 131.346C265.767 125.753 269.682 119.726 272.603 113.53C282.373 92.81 282.833 69.2156 273.88 48.0481C273.283 46.6371 272.734 45.4827 272.658 45.4827Z" fill="#595953"/>
<path d="M234.618 7.4607L64.6782 177.983C64.6789 177.984 64.7443 178.049 64.7447 178.049C121.318 121.084 234.833 7.60896 234.833 7.60896C234.788 7.56747 234.708 7.51555 234.618 7.4607ZM235.257 7.79814C235.257 7.79814 64.9544 178.153 64.9555 178.152C77.411 190.613 90.159 203.337 102.614 215.798L272.658 45.4827L271.746 43.5091C264.519 29.0969 252.362 16.7525 237.979 9.22208L235.257 7.79814Z" fill="#414141"/>
<path d="M46.1652 159.356L27.481 140.664C64.9828 103.18 134.547 32.8137 150.577 17.9993C158.635 11.5759 166.852 7.09137 176.117 4.05988C181.561 2.2787 186.145 1.27479 192.237 0.529864C196.001 0.0695503 205.359 0.0110098 208.985 0.4251C215.123 1.12611 220.986 2.40549 226.36 4.21688C229.165 5.16223 234.523 7.32425 235.257 7.79817C174.656 69.3302 140.003 102.863 64.8495 178.048L46.1652 159.356Z" fill="#333333"/>
</g>
<defs>
<clipPath id="clip0_413_412">
<rect width="280" height="250" fill="white"/>
</clipPath>
</defs>
</svg>
