<svg width="175" height="192" viewBox="0 0 175 192" fill="none" xmlns="http://www.w3.org/2000/svg">
<path d="M165.223 42.054L174 54.1346L41.8457 150.043L30.4204 154.644L9.77688 149.946L1.29247 138.268L132.348 42.5417L145.385 36.7706L165.223 42.054Z" fill="#FFA217"/>
<path d="M165.223 42.054L174 54.1346L41.8457 150.043M165.223 42.054L33.0687 137.962M165.223 42.054L145.385 36.7706M41.8457 150.043L30.4204 154.644L9.77688 149.946L1.29246 138.268M41.8457 150.043L33.0687 137.962M1.29246 138.268L14.0368 132.094M1.29246 138.268L132.348 42.5417L145.385 36.7706M14.0368 132.094L33.0687 137.962M14.0368 132.094L145.385 36.7706" stroke="black"/>
<path d="M155.934 30.6834L166.476 41.261L50.763 156.453L40.1879 162.766L19.0655 161.317L8.87519 151.092L123.531 36.2497L135.517 28.5317L155.934 30.6834Z" fill="#FFA217"/>
<path d="M155.934 30.6834L166.476 41.261L50.763 156.453M155.934 30.6834L40.2213 145.875M155.934 30.6834L135.517 28.5317M50.763 156.453L40.1879 162.766L19.0655 161.317L8.87519 151.092M50.763 156.453L40.2213 145.875M8.87519 151.092L20.5101 143.021M8.87519 151.092L123.531 36.2497L135.517 28.5317M20.5101 143.021L40.2213 145.875M20.5101 143.021L135.517 28.5317" stroke="black"/>
<path d="M140.726 17.8049L153.25 25.9408L64.2489 162.803L55.2316 171.19L34.2741 174.195L22.1667 166.331L110.208 30.0317L120.311 19.9755L140.726 17.8049Z" fill="#FFA217"/>
<path d="M140.726 17.8049L153.25 25.9408L64.2489 162.803M140.726 17.8049L51.724 154.667M140.726 17.8049L120.311 19.9755M64.2489 162.803L55.2316 171.19L34.2741 174.195L22.1667 166.331M64.2489 162.803L51.724 154.667M22.1667 166.331L31.8519 156.003M22.1667 166.331L110.208 30.0317L120.311 19.9755M31.8519 156.003L51.724 154.667M31.8519 156.003L120.311 19.9755" stroke="black"/>
<path d="M123.254 8.43624L137.2 13.785L78.6876 166.179L71.617 176.26L51.7461 183.564L38.2648 178.393L95.9555 26.7503L103.74 14.8109L123.254 8.43624Z" fill="#FFA217"/>
<path d="M123.254 8.43624L137.2 13.785L78.6876 166.179M123.254 8.43624L64.7414 160.83M123.254 8.43624L103.74 14.8109M78.6876 166.179L71.617 176.26L51.7461 183.564L38.2648 178.393M78.6876 166.179L64.7414 160.83M38.2648 178.393L45.5841 166.275M38.2648 178.393L95.9555 26.7503L103.74 14.8109M45.5841 166.275L64.7414 160.83M45.5841 166.275L103.74 14.8109" stroke="black"/>
<path d="M109.266 3.96141L123.872 7.08884L89.6597 166.696L84.2351 177.749L65.7344 188.039L51.6149 185.015L85.1317 26.2768L90.9735 13.2773L109.266 3.96141Z" fill="#FFA217"/>
<path d="M109.266 3.96141L123.872 7.08884L89.6597 166.696M109.266 3.96141L75.0533 163.569M109.266 3.96141L90.9735 13.2773M89.6597 166.696L84.2351 177.749L65.7344 188.039L51.6149 185.015M89.6597 166.696L75.0533 163.569M51.6149 185.015L56.9699 171.912M51.6149 185.015L85.1317 26.2768L90.9735 13.2773M56.9699 171.912L75.0533 163.569M56.9699 171.912L90.9735 13.2773" stroke="black"/>
<path d="M89.4918 1.44678H104.43V164.676L101.442 176.619L85.5083 190.554H71.0685L70.5705 28.3199L73.5581 14.3857L89.4918 1.44678Z" fill="#FFA217"/>
<path d="M89.4918 1.44678H104.43V164.676M89.4918 1.44678V164.676M89.4918 1.44678L73.5581 14.3857M104.43 164.676L101.442 176.619L85.5083 190.554H71.0685M104.43 164.676H89.4918M71.0685 190.554L73.5581 176.619M71.0685 190.554L70.5705 28.3199L73.5581 14.3857M73.5581 176.619L89.4918 164.676M73.5581 176.619V14.3857" stroke="black"/>
</svg>
