<svg width="279" height="279" viewBox="0 0 279 279" fill="none" xmlns="http://www.w3.org/2000/svg">
<g clip-path="url(#clip0_411_306)">
<path d="M139.5 0C60.9266 0 0 57.5786 0 135.315C0 175.979 16.6702 211.133 43.803 235.406C46.0699 237.429 47.4649 240.289 47.5346 243.358L48.3019 268.189C48.3577 270.016 48.8615 271.801 49.7689 273.388C50.6764 274.975 51.9597 276.314 53.506 277.289C55.0524 278.263 56.8144 278.843 58.6374 278.978C60.4603 279.112 62.2883 278.796 63.9607 278.058L91.6515 265.852C93.9881 264.806 96.6386 264.632 99.1148 265.294C111.844 268.782 125.376 270.665 139.5 270.665C218.073 270.665 279 213.086 279 135.35C279 57.6135 218.073 0 139.5 0Z" fill="#595953"/>
<path d="M55.7301 174.898L96.7082 109.891C98.2497 107.444 100.282 105.342 102.677 103.72C105.071 102.098 107.776 100.989 110.621 100.465C113.465 99.9405 116.388 100.012 119.203 100.674C122.019 101.336 124.667 102.574 126.98 104.311L159.588 128.759C161.044 129.848 162.815 130.435 164.633 130.428C166.452 130.422 168.219 129.824 169.667 128.724L213.679 95.3135C219.538 90.8495 227.21 97.8942 223.304 104.137L182.291 169.109C180.75 171.556 178.718 173.658 176.323 175.28C173.929 176.903 171.224 178.011 168.379 178.535C165.534 179.06 162.612 178.989 159.796 178.327C156.981 177.665 154.333 176.426 152.02 174.689L119.412 150.242C117.956 149.152 116.185 148.566 114.367 148.572C112.548 148.578 110.781 149.177 109.333 150.276L65.3207 183.687C59.4617 188.151 51.7892 181.141 55.7301 174.898Z" fill="black"/>
</g>
<defs>
<clipPath id="clip0_411_306">
<rect width="279" height="279" fill="white"/>
</clipPath>
</defs>
</svg>
