<svg width="279" height="279" viewBox="0 0 279 279" fill="none" xmlns="http://www.w3.org/2000/svg">
<g clip-path="url(#clip0_411_318)">
<path d="M246.817 0H32.1831C14.3696 0 0 14.3696 0 32.1831V246.822C0 264.554 14.3696 279 32.1831 279H246.822C264.554 279 279.005 264.554 279.005 246.817V32.1831C279 14.3696 264.63 0 246.817 0ZM228.78 206.46C229.619 207.299 230.077 208.449 230.077 209.67V233.058C230.077 235.581 228.012 237.57 225.565 237.57H202.177C200.956 237.57 199.807 237.112 198.967 236.196L181.236 218.465H97.6881L79.9564 236.196C79.1172 237.036 77.9674 237.57 76.7468 237.57H53.3533C50.8303 237.57 48.8413 235.504 48.8413 233.058V209.67C48.8413 208.449 49.2991 207.299 50.1383 206.46L66.5731 190.025C52.8138 174.353 44.5583 154.098 44.5583 132.007C44.5583 82.0162 87.0567 41.4304 139.418 41.4304C191.856 41.4304 234.355 81.9454 234.355 132.007C234.355 154.098 226.099 174.277 212.34 190.025L228.78 206.46ZM196.139 133.386C196.139 147.832 190.941 159.989 180.238 169.236C169.536 178.865 156.158 183.682 139.495 183.682C122.831 183.682 109.529 178.865 98.827 169.236C88.1248 159.989 82.9262 147.756 82.9262 133.386C82.9262 103.802 106.619 82.7082 139.489 82.7082C172.446 82.632 196.139 103.726 196.139 133.386Z" fill="#595953"/>
</g>
<defs>
<clipPath id="clip0_411_318">
<rect width="279" height="279" fill="white"/>
</clipPath>
</defs>
</svg>
