<svg width="110" height="110" viewBox="0 0 110 110" fill="none" xmlns="http://www.w3.org/2000/svg">
<path d="M88.1162 85.7769L76.0698 78.8849C75.8093 78.7401 75.4907 78.9138 75.4907 79.2323V96.3754C75.4907 96.6939 75.6644 96.9545 75.925 97.1282L87.9714 104.02C88.2322 104.165 88.5507 103.991 88.5507 103.673V86.5297C88.5507 86.2111 88.3768 85.9506 88.1162 85.7769Z" fill="#595953"/>
<path d="M71.2958 83.9436L59.2494 77.0516C58.9888 76.9068 58.6703 77.0805 58.6703 77.3991V104.069C58.6703 104.301 58.844 104.474 59.0757 104.474H71.3537C71.5852 104.474 71.7591 104.301 71.7591 104.069V84.6964C71.73 84.3779 71.5563 84.0884 71.2958 83.9436Z" fill="#595953"/>
<path d="M42.8049 104.368L54.8513 97.476C55.1119 97.3312 55.2856 97.0415 55.2856 96.723V68.2286C55.2856 67.9392 54.9673 67.7364 54.7065 67.8812L42.6601 74.7732C42.3995 74.918 42.2258 75.2074 42.2258 75.526V104.02C42.2258 104.339 42.5444 104.513 42.8049 104.368Z" fill="#595953"/>
<path d="M91.9084 95.7165V103.535C91.9084 103.767 92.0822 103.941 92.3138 103.941H105.982C106.387 103.941 106.532 103.39 106.184 103.217L92.5164 95.398C92.227 95.2243 91.9084 95.4271 91.9084 95.7165Z" fill="#595953"/>
<path d="M38.2541 84.3847L4.77905 103.584C4.43157 103.786 4.57635 104.307 4.98175 104.307H38.4567C38.6884 104.307 38.8623 104.134 38.8623 103.902V84.7321C38.8332 84.4135 38.5147 84.2398 38.2541 84.3847Z" fill="#595953"/>
</svg>
