<svg width="91" height="105" viewBox="0 0 91 105" fill="none" xmlns="http://www.w3.org/2000/svg">
<path d="M85.764 24.5983C80.5505 23.4769 75.8296 20.7104 72.2894 16.702C68.7492 12.6937 66.5747 7.65303 66.0831 2.31495V0H48.0989V71.7686C48.0878 74.9459 47.0869 78.0398 45.2369 80.6156C43.3869 83.1914 40.7808 85.1196 37.7847 86.1292C34.7887 87.1388 31.5534 87.1791 28.5334 86.2444C25.5134 85.3097 22.8606 83.4471 20.9477 80.9182C19.0051 78.3469 17.9275 75.2204 17.8712 71.9918C17.8148 68.7632 18.7827 65.6006 20.6343 62.9624C22.486 60.3242 25.1252 58.3477 28.1693 57.3194C31.2134 56.2912 34.5041 56.2647 37.5642 57.2438V38.8712C30.7404 37.9226 23.7924 39.1425 17.692 42.3602C11.5917 45.5779 6.64409 50.6325 3.5413 56.8169C0.43851 63.0014 -0.664284 70.0063 0.38717 76.8521C1.43862 83.6978 4.59174 90.0418 9.40546 94.9968C13.996 99.7199 19.8822 102.96 26.3125 104.304C32.7428 105.649 39.4256 105.036 45.5078 102.543C51.59 100.051 56.7957 95.7932 60.4605 90.3128C64.1252 84.8323 66.0827 78.378 66.0831 71.7739V35.1022C73.3512 40.327 82.0656 43.1286 91 43.1126V25.1442C89.2405 25.1464 87.4856 24.9634 85.764 24.5983Z" fill="#595953"/>
</svg>
