<svg width="59" height="18" viewBox="0 0 59 18" fill="none" xmlns="http://www.w3.org/2000/svg">
<path d="M42.75 2.02519L51.6481 2.05706V18H53.8459V2.05706H58.5V0H42.75V2.02519Z" fill="white"/>
<path d="M45.0699 17.6499C44.426 17.8834 43.7486 18 43.0371 18V15.9999H43.1132C44.062 15.9999 44.8242 15.7417 45.4001 15.225C45.9761 14.7082 46.2639 14.0499 46.2639 13.2501C46.2639 12.4667 46.0777 11.8418 45.7051 11.3751C45.3324 10.9084 44.8411 10.5334 44.2314 10.2501C43.6384 9.95006 43.0031 9.68325 42.3256 9.45C41.8852 9.3 41.394 9.10837 40.8518 8.87494C40.3099 8.625 39.7932 8.31675 39.302 7.95C38.8108 7.56675 38.4042 7.10006 38.0824 6.54994C37.7775 6 37.625 5.325 37.625 4.52494C37.625 3.65831 37.8452 2.88338 38.2857 2.19994C38.7261 1.51669 39.3359 0.983249 40.115 0.599999C40.8942 0.200062 41.7836 0 42.783 0V2.025H42.656C41.6903 2.025 40.9874 2.25825 40.5471 2.72494C40.1066 3.17494 39.8864 3.68325 39.8864 4.25006C39.8864 4.73325 40.0133 5.18325 40.2675 5.60006C40.5216 6 40.9451 6.38325 41.5379 6.75C42.1478 7.10006 42.9694 7.44994 44.0026 7.8C44.4769 7.96669 44.9766 8.18325 45.5018 8.45006C46.0269 8.71669 46.5096 9.05831 46.9502 9.47494C47.4074 9.87506 47.78 10.3667 48.0681 10.95C48.356 11.5166 48.5 12.2001 48.5 12.9999C48.5 13.7666 48.3475 14.4583 48.0426 15.075C47.7547 15.6917 47.3481 16.2167 46.823 16.65C46.3148 17.0833 45.7304 17.4167 45.0699 17.6499Z" fill="white"/>
<path fill-rule="evenodd" clip-rule="evenodd" d="M40.625 9.51405C39.7167 9.22358 38.9195 8.69322 38.3119 7.99976C38.3561 8.33274 38.3783 8.67618 38.3783 9.03005C38.3783 10.3169 38.0855 11.4654 37.5 12.4754L39.959 12.4998C40.3514 11.566 40.5734 10.5707 40.625 9.51405Z" fill="white"/>
<path fill-rule="evenodd" clip-rule="evenodd" d="M37.686 2.18831C36.9782 1.56731 36.173 1.07138 35.2704 0.699938C34.1934 0.23325 33.0071 0 31.7112 0C30.4323 0 29.2459 0.23325 28.152 0.699938C27.0582 1.14994 26.1073 1.78331 25.2995 2.60006C24.4917 3.39994 23.8606 4.35 23.4063 5.45006C22.9688 6.53325 22.75 7.71675 22.75 9C22.75 10.2668 22.9688 11.4501 23.4063 12.5499C23.8606 13.65 24.4917 14.6083 25.2995 15.4251C26.1073 16.2249 27.0582 16.8583 28.152 17.325C29.2459 17.775 30.4323 18 31.7112 18H43.125V15.9998L31.7112 15.8751C30.4323 15.8751 29.2879 15.5751 28.2782 14.9751C27.2685 14.3751 26.4692 13.5583 25.8802 12.525C25.308 11.4917 25.0218 10.3166 25.0218 9C25.0218 7.68337 25.308 6.50831 25.8802 5.475C26.4692 4.44169 27.2685 3.62494 28.2782 3.02494C29.2879 2.42494 30.4323 2.12494 31.7112 2.12494C33.0071 2.12494 34.1513 2.42494 35.1442 3.02494C35.9239 3.48844 36.5733 4.08094 37.0921 4.80281C37.0893 4.73344 37.088 4.66369 37.088 4.59375C37.088 3.72506 37.3042 2.90644 37.686 2.18831Z" fill="white"/>
<path fill-rule="evenodd" clip-rule="evenodd" d="M10.1556 2.18831C10.8591 1.56731 11.6594 1.07138 12.5564 0.699938C13.6268 0.23325 14.8058 0 16.0937 0C17.3648 0 18.544 0.23325 19.6311 0.699938C20.7182 1.14994 21.6632 1.78331 22.4661 2.60006C23.269 3.39994 23.8962 4.35 24.3477 5.45006C24.7825 6.53325 25 7.71675 25 9C25 10.2668 24.7825 11.4501 24.3477 12.5499C23.8962 13.65 23.269 14.6083 22.4661 15.4251C21.6632 16.2249 20.7182 16.8583 19.6311 17.325C18.544 17.775 17.3648 18 16.0937 18H4.75V16.0702L16.0937 15.8751C17.3648 15.8751 18.5022 15.5751 19.5057 14.9751C20.5092 14.3751 21.3036 13.5583 21.889 12.525C22.4577 11.4917 22.7421 10.3166 22.7421 9C22.7421 7.68337 22.4577 6.50831 21.889 5.475C21.3036 4.44169 20.5092 3.62494 19.5057 3.02494C18.5022 2.42494 17.3648 2.12494 16.0937 2.12494C14.8058 2.12494 13.6686 2.42494 12.6818 3.02494C11.9069 3.48844 11.2615 4.08094 10.7459 4.80281C10.7487 4.73344 10.75 4.66369 10.75 4.59375C10.75 3.72506 10.5351 2.90644 10.1556 2.18831Z" fill="white"/>
<path fill-rule="evenodd" clip-rule="evenodd" d="M6.97493 8.17837C7.1308 8.13187 7.28163 8.07994 7.42761 8.02294C8.23285 7.71431 8.85817 7.26 9.30376 6.66C9.74917 6.06 9.97197 5.34 9.97197 4.5C9.97197 3.47137 9.74917 2.63137 9.30376 1.98C8.85817 1.31137 8.23285 0.814313 7.42761 0.488626C6.63934 0.162938 5.70565 0 4.62617 0H0V1.92862H2.18458H4.62617C5.53427 1.92862 6.28809 2.16863 6.88787 2.64863C7.48746 3.11138 7.78744 3.77138 7.78744 4.62863C7.78744 5.19431 7.65022 5.67431 7.37615 6.06862C7.10209 6.46294 6.7251 6.76294 6.24539 6.96863C5.76549 7.17431 5.22586 7.27706 4.62617 7.27706H2.18458H0V18H4.88318C6.04832 18 7.08493 17.8114 7.9929 17.4343C8.9182 17.04 9.64644 16.4571 10.1776 15.6857C10.7259 14.8971 11 13.9114 11 12.7286C11 11.9057 10.8458 11.1943 10.5374 10.5943C10.2289 9.99431 9.79205 9.50569 9.22658 9.12863C8.67844 8.73431 8.03578 8.44294 7.29915 8.25431C7.19251 8.22694 7.08437 8.20162 6.97493 8.17837ZM2.18458 9.18H4.88318C5.46573 9.18 5.99686 9.25706 6.47658 9.41138C6.95647 9.54862 7.36758 9.76294 7.71026 10.0543C8.07009 10.3457 8.34415 10.7057 8.53264 11.1343C8.72114 11.5629 8.81547 12.0514 8.81547 12.6C8.81547 13.3371 8.64414 13.9629 8.30146 14.4771C7.97593 14.9914 7.51319 15.3857 6.91359 15.66C6.33097 15.9343 5.65419 16.0714 4.88318 16.0714H2.18458V9.18Z" fill="white"/>
</svg>
